<?xml version="1.0" encoding="UTF-8"?>
<svg id="Layer_1" xmlns="http://www.w3.org/2000/svg" version="1.1" viewBox="0 0 35.28 33.34">
  <defs>
    <style>
      .st0 {
        fill: #d2d2d2;
      }

      .st1 {
        fill: #172432;
      }
    </style>
  </defs>
  <path class="st1" d="M22,12.44v.72c0,.34.32.59.65.52l10.5-2.35c.14-.03.27.07.27.22v12.99c0,.23-.15.43-.37.5l-13.55,4.28c-.19.06-.37-.08-.37-.27V9.2c0-.75-.31-1.46-.87-1.96L11.14.73c-1.07-.98-2.71-.98-3.78,0L1.31,6.24c-.84.76-1.31,1.84-1.31,2.98v10.65c0,.97.47,1.88,1.26,2.45l14.46,10.38c1,.72,2.3.85,3.42.35l15.79-7.01c.22-.1.36-.31.36-.55V9.36c0-.11-.1-.2-.21-.17l-12.65,2.73c-.24.05-.42.27-.42.52Z"/>
  <path class="st0" d="M30.34,16.18l-7.78,1.76c-.21.05-.41-.11-.41-.32v-.59c0-.16.11-.29.26-.32l7.78-1.76c.21-.05.41.11.41.32v.59c0,.16-.11.29-.26.32Z"/>
  <path class="st0" d="M30.34,19.4l-7.78,1.76c-.21.05-.41-.11-.41-.32v-.59c0-.16.11-.29.26-.32l7.78-1.76c.21-.05.41.11.41.32v.59c0,.16-.11.29-.26.32Z"/>
  <path class="st0" d="M30.34,22.61l-7.78,1.76c-.21.05-.41-.11-.41-.32v-.59c0-.16.11-.29.26-.32l7.78-1.76c.21-.05.41.11.41.32v.59c0,.16-.11.29-.26.32Z"/>
</svg>
